<svg xmlns="http://www.w3.org/2000/svg" viewBox="0 0 56.46 35.29"><g id="Layer_2" data-name="Layer 2"><g id="Objects"><path d="M0,0C5.25,0,10.51,0,15.76.07a19,19,0,0,1,5.09.72C24.17,1.77,26.48,4,27,7.5A8.12,8.12,0,0,1,23.21,16a1.85,1.85,0,0,0-.27.31,8.9,8.9,0,0,1,5.26,8.12c.23,5.14-3.21,9.21-8.72,10.35a25.47,25.47,0,0,1-4.78.46c-4.9.06-9.8,0-14.7,0ZM7.11,14.12c2.2,0,4.31,0,6.41,0a19.69,19.69,0,0,0,3.27-.17c2-.37,3.37-1.78,3.38-3.36a3.42,3.42,0,0,0-3.43-3.25c-3.18-.21-6.38,0-9.63,0Zm0,14.09c3,0,6,0,8.89,0a5.42,5.42,0,0,0,1.7-.41,3.26,3.26,0,0,0,2.45-3,3.4,3.4,0,0,0-2.32-3.09,3.26,3.26,0,0,0-1.23-.35c-3.15,0-6.3,0-9.49,0Zm49.36-4.68H37.79c-.63,3.42,2.68,6.85,6.4,6.45A16.87,16.87,0,0,0,48,28.61a3,3,0,0,1,.93-.36c2.24,0,4.47,0,7,0a20.9,20.9,0,0,1-1.15,2.1C52.32,33.63,48.89,35,45,35.22a18.94,18.94,0,0,1-5.46-.52c-5-1.26-8.16-5.15-8.67-10.61a17.48,17.48,0,0,1,1.47-9.64c2.32-4.6,7.4-7.09,13-6.36,6.45.85,9.93,4.26,11,10.79a2.5,2.5,0,0,0,.19.41Zm-7.11-4.75c-.34-3.61-2.55-5.34-6.43-5.13a5,5,0,0,0-5,5.13ZM51.69.08H35.38V4.65H51.69Z"/></g></g></svg>