<svg xmlns="http://www.w3.org/2000/svg" viewBox="0 0 48.99 48.99"><g id="Layer_2" data-name="Layer 2"><g id="Objects"><path d="M48.84,14.39A17.9,17.9,0,0,0,47.7,8.45a12.06,12.06,0,0,0-2.82-4.34,12,12,0,0,0-4.34-2.82A17.91,17.91,0,0,0,34.59.15C32,0,31.15,0,24.49,0S17,0,14.4.15a17.91,17.91,0,0,0-6,1.14A11.93,11.93,0,0,0,4.11,4.11,11.93,11.93,0,0,0,1.29,8.45,17.9,17.9,0,0,0,.15,14.39C0,17,0,17.84,0,24.49S0,32,.15,34.59a17.91,17.91,0,0,0,1.14,5.95,12,12,0,0,0,2.82,4.34A12.06,12.06,0,0,0,8.45,47.7a17.91,17.91,0,0,0,6,1.14C17,49,17.84,49,24.49,49s7.49,0,10.1-.15a17.91,17.91,0,0,0,5.95-1.14,12.46,12.46,0,0,0,7.16-7.16,17.91,17.91,0,0,0,1.14-5.95C49,32,49,31.14,49,24.49S49,17,48.84,14.39Zm-4.41,20a13.73,13.73,0,0,1-.84,4.55,8.22,8.22,0,0,1-4.65,4.65,13.73,13.73,0,0,1-4.55.84c-2.58.12-3.36.14-9.9.14s-7.31,0-9.89-.14a13.73,13.73,0,0,1-4.55-.84,7.71,7.71,0,0,1-2.82-1.84A7.56,7.56,0,0,1,5.4,38.94a13.47,13.47,0,0,1-.84-4.55c-.12-2.58-.15-3.36-.15-9.9s0-7.31.15-9.89a13.47,13.47,0,0,1,.84-4.55A7.6,7.6,0,0,1,7.23,7.23,7.56,7.56,0,0,1,10.05,5.4a13.22,13.22,0,0,1,4.55-.84c2.58-.12,3.35-.15,9.89-.15s7.32,0,9.9.15a13.22,13.22,0,0,1,4.55.84,7.44,7.44,0,0,1,2.81,1.83,7.62,7.62,0,0,1,1.84,2.82,13.73,13.73,0,0,1,.84,4.55c.12,2.58.14,3.35.14,9.89S44.55,31.81,44.43,34.39Z"/><path d="M24.49,11.92A12.58,12.58,0,1,0,37.07,24.49,12.57,12.57,0,0,0,24.49,11.92Zm0,20.74a8.17,8.17,0,1,1,8.17-8.17A8.17,8.17,0,0,1,24.49,32.66Z"/><path d="M37.57,8.48a2.94,2.94,0,1,0,2.94,2.94A2.94,2.94,0,0,0,37.57,8.48Z"/></g></g></svg>