<svg xmlns="http://www.w3.org/2000/svg" viewBox="0 0 46.38 57.15"><g id="Layer_2" data-name="Layer 2"><g id="Objects"><path d="M24,0c12.6,0,22.39,9,22.39,21,0,12.52-7.89,22.59-18.84,22.59-3.68,0-7.14-1.92-8.33-4.17,0,0-1.82,6.93-2.26,8.63a36.54,36.54,0,0,1-3.74,8.24A1.81,1.81,0,0,1,11,57a1.78,1.78,0,0,1-1.2-1.53,32.32,32.32,0,0,1,.24-9.27c.66-2.83,4.26-18,4.26-18a13,13,0,0,1-1.09-5.39c0-5.05,2.93-8.82,6.57-8.82,3.1,0,4.6,2.33,4.6,5.12,0,3.11-2,7.77-3,12.09a5.27,5.27,0,0,0,5.38,6.56c6.45,0,11.41-6.8,11.41-16.63C38.2,12.43,32,6.35,23,6.35c-10.33,0-16.4,7.75-16.4,15.76a14.14,14.14,0,0,0,2.7,8.29,1.06,1.06,0,0,1,.25,1c-.27,1.14-.88,3.61-1,4.12s-.53.8-1.22.48C2.84,33.93,0,27.3,0,22,0,10.52,8.32,0,24,0"/></g></g></svg>