<svg xmlns="http://www.w3.org/2000/svg" viewBox="0 0 57.05 53.67"><defs><style>.cls-1{stroke:#0f0f0f;stroke-miterlimit:10;stroke-width:2px;}</style></defs><g id="Layer_2" data-name="Layer 2"><g id="Objects"><path class="cls-1" d="M28.87,52.67h-.69c-3.27,0-5.36-1.48-7.38-2.91a10.79,10.79,0,0,0-4.27-2.18,14.52,14.52,0,0,0-2.24-.19,15.85,15.85,0,0,0-3.11.35,6.89,6.89,0,0,1-1.16.17.73.73,0,0,1-.81-.57c-.12-.44-.22-.87-.31-1.28-.23-1.06-.39-1.71-.84-1.78-5.17-.8-6.65-1.89-7-2.66A1,1,0,0,1,1,41.29a.6.6,0,0,1,.49-.61c8-1.31,11.52-9.43,11.66-9.78l0,0a3,3,0,0,0,.28-2.54C12.91,27,11.13,26.48,10,26.1c-.29-.09-.56-.17-.78-.26C6.82,24.91,6.62,24,6.72,23.47c.15-.83,1.26-1.4,2.16-1.4a1.59,1.59,0,0,1,.64.12,6.8,6.8,0,0,0,2.83.75A2.33,2.33,0,0,0,14,22.4c0-.54-.06-1.1-.1-1.68-.23-3.76-.53-8.43.66-11.1A14.4,14.4,0,0,1,28,1h1.11A14.41,14.41,0,0,1,42.45,9.62c1.19,2.67.89,7.34.65,11.1v.16c0,.53-.07,1-.1,1.52a2.29,2.29,0,0,0,1.55.54h0a7,7,0,0,0,2.67-.75,2.09,2.09,0,0,1,.83-.16,2.47,2.47,0,0,1,1,.18h0a1.74,1.74,0,0,1,1.33,1.43c0,.55-.41,1.38-2.47,2.19-.21.09-.49.17-.78.26-1.18.38-3,.94-3.5,2.23a3,3,0,0,0,.28,2.54l0,0c.14.35,3.71,8.47,11.66,9.78a.6.6,0,0,1,.49.61,1.32,1.32,0,0,1-.08.33c-.33.77-1.81,1.86-7,2.66-.43.06-.59.61-.84,1.77-.09.42-.19.83-.32,1.26a.69.69,0,0,1-.74.56H47a6.4,6.4,0,0,1-1.16-.15,15.51,15.51,0,0,0-3.11-.33,14.52,14.52,0,0,0-2.24.19,10.69,10.69,0,0,0-4.26,2.18c-2,1.43-4.13,2.91-7.39,2.91"/></g></g></svg>