<svg xmlns="http://www.w3.org/2000/svg" viewBox="0 0 45.72 51.98"><g id="Layer_2" data-name="Layer 2"><g id="Objects"><path d="M25.24,2h8.45c.82,7.22,5,11,12,12v8.3c-4.28.19-8.06-1.23-11.77-3.6-.05.59-.13,1-.13,1.45,0,5.28,0,10.56,0,15.83,0,8.9-6.42,15.4-15.66,16-7.38.48-14.78-6-15.95-13.87A15.82,15.82,0,0,1,18.33,20.27c.52,0,1,.13,1.63.21v8.4c-.45,0-.9,0-1.34,0A7.18,7.18,0,1,0,17.5,43.2,7.14,7.14,0,0,0,25.22,36c.06-10.55,0-21.1,0-31.65Z"/><path d="M23.2,0h8.44c.82,7.22,5,11,12,12v8.3c-4.29.19-8.07-1.23-11.78-3.6,0,.59-.12,1-.12,1.46,0,5.27,0,10.55,0,15.82-.05,8.9-6.42,15.4-15.66,16-7.39.48-14.79-6-15.95-13.87A15.82,15.82,0,0,1,16.29,18.31c.51,0,1,.13,1.62.21v8.41c-.45,0-.89,0-1.34,0a7.18,7.18,0,1,0-1.12,14.32A7.13,7.13,0,0,0,23.17,34c.06-10.55,0-21.1,0-31.66Z"/><path d="M36.49,9.31A12,12,0,0,1,32,2H25.24V4.32c0,10.55,0,21.1,0,31.65A7.14,7.14,0,0,1,17.5,43.2a7,7,0,0,1-5.46-3,7.29,7.29,0,0,1-3.37-6.38,7.21,7.21,0,0,1,7.9-6.87c.45,0,.89,0,1.34,0V20.26A15.84,15.84,0,0,0,2.2,38.09a16.5,16.5,0,0,0,4,8.49A14.39,14.39,0,0,0,16.11,50c9.24-.61,15.61-7.11,15.66-16,0-5.27,0-10.55,0-15.82,0-.44.07-.87.12-1.46,3.71,2.37,7.49,3.79,11.78,3.6V12A15.53,15.53,0,0,1,36.49,9.31Z"/></g></g></svg>