<svg xmlns="http://www.w3.org/2000/svg" viewBox="0 0 52.02 42.28"><g id="Layer_2" data-name="Layer 2"><g id="Objects"><path d="M16.36,42.28C36,42.28,46.72,26,46.72,11.91q0-.69,0-1.38A21.4,21.4,0,0,0,52,5a21.33,21.33,0,0,1-6.13,1.69A10.78,10.78,0,0,0,50.58.78a21.42,21.42,0,0,1-6.77,2.59,10.68,10.68,0,0,0-18.47,7.3,10.23,10.23,0,0,0,.28,2.43A30.27,30.27,0,0,1,3.62,2,10.7,10.7,0,0,0,6.92,16.2a10.54,10.54,0,0,1-4.83-1.33V15a10.69,10.69,0,0,0,8.56,10.47,10.88,10.88,0,0,1-2.81.37,11,11,0,0,1-2-.19,10.69,10.69,0,0,0,10,7.41A21.42,21.42,0,0,1,2.54,37.63,21.26,21.26,0,0,1,0,37.48a30.18,30.18,0,0,0,16.36,4.8"/></g></g></svg>