<svg xmlns="http://www.w3.org/2000/svg" viewBox="0 0 53.66 53.89"><defs><style>.cls-1{fill:#211915;stroke:#000;stroke-miterlimit:10;}</style></defs><g id="Layer_2" data-name="Layer 2"><g id="Objects"><path class="cls-1" d="M45.52,8.16a26.12,26.12,0,0,0-41.1,31.5L.71,53.19l13.85-3.63A26.16,26.16,0,0,0,27,52.74h0A26.12,26.12,0,0,0,45.52,8.16ZM27.05,48.33h0a21.73,21.73,0,0,1-11-3l-.79-.47L7,47l2.19-8-.51-.82A21.7,21.7,0,1,1,27.05,48.33Z"/><path d="M39,32.07c.66.33,1.09.49,1.25.77a5.32,5.32,0,0,1-.38,3.1c-.54,1.52-3.15,2.91-4.4,3.1a8.87,8.87,0,0,1-4.11-.26,36.84,36.84,0,0,1-3.72-1.37C21,34.58,16.77,28,16.44,27.56S13.78,24,13.78,20.81a7.3,7.3,0,0,1,2.28-5.44,2.39,2.39,0,0,1,1.74-.82c.44,0,.87,0,1.25,0s.94-.15,1.47,1.12,1.85,4.52,2,4.85a1.22,1.22,0,0,1,.06,1.14,4.53,4.53,0,0,1-.66,1.09c-.32.38-.68.85-1,1.14s-.66.68-.28,1.33a19.49,19.49,0,0,0,3.63,4.52A17.86,17.86,0,0,0,29.55,33c.65.33,1,.27,1.41-.16s1.63-1.91,2.07-2.56.87-.55,1.46-.33,3.81,1.8,4.46,2.12"/></g></g></svg>