<svg xmlns="http://www.w3.org/2000/svg" viewBox="0 0 55.48 39.02"><g id="Layer_2" data-name="Layer 2"><g id="Objects"><path d="M54.92,8.42s-.54-3.83-2.2-5.51A8,8,0,0,0,47.16.56C39.39,0,27.75,0,27.75,0h0S16.08,0,8.32.56A7.93,7.93,0,0,0,2.76,2.91C1.1,4.59.56,8.42.56,8.42a83.1,83.1,0,0,0-.56,9V21.6a83.16,83.16,0,0,0,.56,9s.54,3.82,2.2,5.51c2.11,2.21,4.88,2.14,6.12,2.37,4.44.43,18.86.56,18.86.56s11.65,0,19.42-.58a8,8,0,0,0,5.56-2.35c1.66-1.69,2.2-5.51,2.2-5.51a83.16,83.16,0,0,0,.56-9V17.39A83.1,83.1,0,0,0,54.92,8.42ZM22,26.7V11.12l15,7.82Z"/></g></g></svg>