<svg xmlns="http://www.w3.org/2000/svg" viewBox="0 0 500 500.13"><defs><style>.cls-1{fill:#600abf;}.cls-2{fill:#c600cc;}</style></defs><g id="Layer_2" data-name="Layer 2"><g id="Logo_S3" data-name="Logo S3"><g id="Logo_M3_8" data-name="Logo M3 8"><path class="cls-1" d="M118.14,12.71V119.25a15.66,15.66,0,0,0,3.83,9.88L440.09,495.06a20.39,20.39,0,0,0,7.66,4.94c.83.29,41.45,0,41.45,0A10.81,10.81,0,0,0,500,489.2V10.8A10.81,10.81,0,0,0,489.2,0H399.69a10.81,10.81,0,0,0-10.8,10.8V250c-.18,14.21-16.46,19.79-27.42,8.46L139.5,6.73a14,14,0,0,0-10.56-4.82h0A10.8,10.8,0,0,0,118.14,12.71Z"/><path class="cls-2" d="M0,9.57V450a50,50,0,0,0,50,50H416a9.57,9.57,0,0,0,7.15-15.93l-78.18-89.15a17.94,17.94,0,0,0-13.42-6h-186a34.44,34.44,0,0,1-34.43-34.43V9.57A9.57,9.57,0,0,0,101.54,0h-92A9.58,9.58,0,0,0,0,9.57Z"/></g></g></g></svg>